# xmcd
#
# Track frame offsets:
#	150
#	10007
#	32918
#	49375
#	67850
#	83503
#	89416
#	97166
#	116945
#	129063
#	133374
#	148885
#	163551
#	178697
#
# Disc length: 2619 seconds
#
# Revision: 1
# Processed by: cddbd v1.5.1PL2 Copyright (c) Steve Scherf et al.
# Submitted via: EasyCDDAExtractor 9.0.0.1
#
DISCID=c20a390e
DTITLE=David Lee Roth - Waterfest Leach Amphitheater Oshkosh 06-07-06 Disc 1
DYEAR=2006
DGENRE=Hard Rock
TTITLE0=Announcements
TTITLE1=Hot For Teacher
TTITLE2=California Girls
TTITLE3=Just Like Paradise
TTITLE4=Runnin' With The Devil
TTITLE5=Eruption
TTITLE6=You Really Got Me
TTITLE7=Birdland
TTITLE8=Band Introductions
TTITLE9=You Really Got Me (Reprise)
TTITLE10=Beautiful Girls
TTITLE11=Somebody Get Me A Doctor
TTITLE12=Jamie's Cryin'
TTITLE13=And The Cradle Will Rock
EXTD=
EXTT0=
EXTT1=
EXTT2=
EXTT3=
EXTT4=
EXTT5=
EXTT6=
EXTT7=
EXTT8=
EXTT9=
EXTT10=
EXTT11=
EXTT12=
EXTT13=
PLAYORDER=
